<svg width="19" height="13" fill="none"><path fill-rule="evenodd" clip-rule="evenodd" d="M16.1393 10.4663L11.8089 6.5l4.3304-3.96635-.5905-.63101-6.29883 5.76924-6.2988-5.76924-.59051.63101L6.69108 6.5l-4.33042 3.9663.59051.6311 4.37964-4.01146 1.91916 1.75781 1.91913-1.75781 4.3797 4.01146.5905-.6311zM1.57593.25C.76692.25.11108.94884.11108 1.80786v9.38424c0 .8604.65052 1.5579 1.46485 1.5579H16.924c.809 0 1.4649-.6988 1.4649-1.5579V1.80786C18.3889.94748 17.7383.25 16.924.25H1.57593z" fill="#FFD74B"/></svg>