<svg width="68" height="68" fill="none" xmlns="http://www.w3.org/2000/svg"><circle cx="34" cy="34" r="34" fill="#E2E5F2"/><path d="M43.38 43.24V39.9a5.85 5.85 0 00-2.81-5.09c-.94-.67-2.95-.8-3.9-.8l-2.13 2.28.8 1.74v4.02L34 43.5l-1.34-1.47v-4.02l.94-1.74L31.32 34c-1.07 0-3.08.13-4.02.8a5.53 5.53 0 00-2 2.28 5.15 5.15 0 00-.68 2.81v3.35s3.49 1.48 9.38 1.48c5.9 0 9.38-1.48 9.38-1.48zM34 23.42c-2.54 0-4.02 2.41-3.62 5.09.4 2.68 1.74 4.55 3.62 4.55 1.88 0 3.21-1.87 3.62-4.55.4-2.81-1.08-5.1-3.62-5.1z" fill="#132576"/></svg>